# xmcd CD database file
#
# Track frame offsets:
#	150
#	12017
#	25170
#	34037
#	47887
#	61687
#	71050
#	89105
#	99005
#	113087
#	124582
#	140242
#	152232
#
# Disc length: 2185 seconds
#
# Revision: 0
# Processed by: cddbd v1.5.2PL0 Copyright (c) Steve Scherf et al.
# Submitted via: CDex 1.50
#
DISCID=a908870d
DTITLE=Jackie Paris - Songs By Jackie Paris
DYEAR=2000
DGENRE=Jazz
TTITLE0=There Will Never Be Another You
TTITLE1=Heaven Can Wait
TTITLE2=Strange
TTITLE3=That Ole Devil Called Love
TTITLE4=Whispering Grass
TTITLE5=Heart Of Gold
TTITLE6=I Can't Get Started
TTITLE7=Indiana
TTITLE8=Cloudy Morning
TTITLE9=Wrap Your Troubles In Dreams
TTITLE10=Goodnight My Love
TTITLE11=Don't Hurt The Girl
TTITLE12=Tell Me Something Sweet
EXTD=YEAR: 2000
EXTT0=
EXTT1=
EXTT2=
EXTT3=
EXTT4=
EXTT5=
EXTT6=
EXTT7=
EXTT8=
EXTT9=
EXTT10=
EXTT11=
EXTT12=
PLAYORDER=
